<?xml version="1.0" encoding="UTF-8" standalone="no"?>
<!-- Created with Inkscape (http://www.inkscape.org/) -->

<svg
   width="210mm"
   height="297mm"
   viewBox="0 0 210 297"
   version="1.1"
   id="svg1"
   xml:space="preserve"
   inkscape:version="1.4 (86a8ad7, 2024-10-11)"
   sodipodi:docname="Antaragni.svg"
   xmlns:inkscape="http://www.inkscape.org/namespaces/inkscape"
   xmlns:sodipodi="http://sodipodi.sourceforge.net/DTD/sodipodi-0.dtd"
   xmlns="http://www.w3.org/2000/svg"
   xmlns:svg="http://www.w3.org/2000/svg"><sodipodi:namedview
     id="namedview1"
     pagecolor="#ffffff"
     bordercolor="#000000"
     borderopacity="0.25"
     inkscape:showpageshadow="2"
     inkscape:pageopacity="0.0"
     inkscape:pagecheckerboard="0"
     inkscape:deskcolor="#d1d1d1"
     inkscape:document-units="mm"
     inkscape:zoom="0.68862935"
     inkscape:cx="396.43968"
     inkscape:cy="561.25984"
     inkscape:window-width="1920"
     inkscape:window-height="991"
     inkscape:window-x="-9"
     inkscape:window-y="-9"
     inkscape:window-maximized="1"
     inkscape:current-layer="layer1" /><defs
     id="defs1" /><g
     inkscape:label="Layer 1"
     inkscape:groupmode="layer"
     id="layer1"><path
       style="opacity:0.841155;fill:#9e0709;fill-opacity:1;stroke:#000000;stroke-width:0.213625"
       d="m 78.38033,227.96668 c -28.32787,-1.13664 -32.15377,-2.01314 -39.02602,-8.94071 -4.46735,-4.5033 -5.7353,-7.75546 -5.7353,-14.71049 0,-8.58362 3.58533,-18.68456 11.07222,-31.19375 1.40172,-2.34202 9.02533,-13.94049 16.94136,-25.77438 7.91602,-11.83389 15.41699,-23.15618 16.66881,-25.16064 1.25183,-2.00445 2.68786,-4.13388 3.1912,-4.73206 1.46591,-1.74213 12.64785,-19.871335 16.3988,-26.587255 5.18235,-9.278758 7.20918,-13.522772 10.20359,-21.365432 5.29502,-13.868175 5.79092,-16.104603 6.59352,-29.73547 0.49398,-8.389649 0.60406,-9.029107 1.55424,-9.029107 0.95134,0 1.26811,0.669739 2.27151,4.802716 1.17119,4.824079 1.16352,4.802717 1.72479,4.802717 0.27696,0 0.7679,-0.38902 1.09097,-0.864489 0.47879,-0.704652 0.71834,-0.786638 1.29557,-0.443426 1.21653,0.72332 1.62432,2.786988 1.64703,8.335026 0.0537,13.123124 -2.34445,23.002671 -9.39632,38.709303 -2.67305,5.953682 -9.72846,19.953107 -13.04042,25.874967 -1.59496,2.85181 -2.89992,5.45454 -2.89992,5.78385 0,0.3293 0.7764,1.65339 1.72533,2.94243 1.8181,2.46971 4.3584,7.00751 11.1643,19.94307 7.25664,13.79223 8.82988,15.96981 15.10551,20.90809 4.12342,3.24472 5.32886,4.51633 11.96346,12.62026 2.00754,2.45213 3.87145,4.55288 4.14203,4.66833 0.28031,0.1196 0.67876,-0.20009 0.92616,-0.74307 0.97805,-2.14659 3.74824,-0.40899 9.08435,5.69816 7.53491,8.62367 10.43737,14.57145 10.43737,21.38846 0,4.9067 -1.62618,8.54783 -5.71715,12.80108 -4.07938,4.24121 -6.34233,5.22796 -19.52964,8.51586 l -6.99647,1.74438 -25.08568,-0.0753 c -13.79712,-0.0414 -26.29596,-0.12381 -27.7752,-0.18316 z m 29.58474,-21.66067 c 14.55703,-0.4438 21.53509,-0.93486 25.35834,-1.78452 2.92518,-0.65008 5.24711,-1.60992 5.4554,-2.25513 0.20423,-0.63267 -2.34634,-4.37156 -11.37481,-16.67443 -10.3657,-14.1251 -12.62227,-17.38129 -16.36696,-23.61721 -3.31917,-5.52732 -4.80095,-8.6153 -4.80095,-10.00504 0,-1.27867 0.45687,-1.44745 2.08107,-0.76882 1.17247,0.48989 1.42664,0.49817 1.59783,0.0521 0.11197,-0.29177 -1.87035,-4.57495 -4.40514,-9.51817 -2.5348,-4.94321 -5.14747,-10.33851 -5.80595,-11.98956 -1.18159,-2.96273 -1.18901,-3.02338 -0.56863,-4.64784 0.56869,-1.48909 0.57271,-1.77969 0.0421,-3.04952 -0.70148,-1.67887 -1.30078,-1.75795 -2.62977,-0.34699 -2.69394,2.8601 -29.48095,46.21326 -36.7727,59.51439 -5.15888,9.41049 -9.87848,21.3239 -9.00608,22.73354 0.23538,0.38034 1.81139,1.02293 3.82417,1.55923 2.90294,0.7735 4.70966,0.94936 11.87657,1.15608 10.08651,0.29092 24.20325,0.16911 41.49547,-0.35807 z"
       id="path3" /><path
       style="opacity:0.841155;fill:#9e0709;fill-opacity:1;stroke:#000000;stroke-width:0.807401"
       d=""
       id="path5"
       transform="scale(0.26458333)" /><path
       style="opacity:0.841155;fill:#9e0709;fill-opacity:1;stroke:#000000;stroke-width:0.807401"
       d=""
       id="path6"
       transform="scale(0.26458333)" /><path
       style="opacity:0.841155;fill:#9e0709;fill-opacity:1;stroke:#000000;stroke-width:0.807401"
       d=""
       id="path7"
       transform="scale(0.26458333)" /><path
       style="opacity:0.841155;fill:#9e0709;fill-opacity:1;stroke:#000000;stroke-width:0.807401"
       d=""
       id="path8"
       transform="scale(0.26458333)" /><path
       style="opacity:0.841155;fill:#9e0709;fill-opacity:1;stroke:#000000;stroke-width:0.807401"
       d=""
       id="path9"
       transform="scale(0.26458333)" /><path
       style="opacity:0.841155;fill:#9e0709;fill-opacity:1;stroke:#000000;stroke-width:0.807401"
       d=""
       id="path10"
       transform="scale(0.26458333)" /><path
       style="opacity:0.841155;fill:#9e0709;fill-opacity:1;stroke:#000000;stroke-width:0.807401"
       d=""
       id="path11"
       transform="scale(0.26458333)" /><path
       style="opacity:0.841155;fill:#9e0709;fill-opacity:1;stroke:#000000;stroke-width:0.807401"
       d=""
       id="path12"
       transform="scale(0.26458333)" /><path
       style="opacity:0.841155;fill:#9e0709;fill-opacity:1;stroke:#000000;stroke-width:0.807401"
       d=""
       id="path13"
       transform="scale(0.26458333)" /><path
       style="opacity:0.841155;fill:#9e0709;fill-opacity:1;stroke:#000000;stroke-width:0.807401"
       d=""
       id="path14"
       transform="scale(0.26458333)" /><path
       style="opacity:0.841155;fill:#9e0709;fill-opacity:1;stroke:#000000;stroke-width:0.807401"
       d=""
       id="path15"
       transform="scale(0.26458333)" /><path
       style="opacity:0.841155;fill:#9e0709;fill-opacity:1;stroke:#000000;stroke-width:0.807401"
       d=""
       id="path16"
       transform="scale(0.26458333)" /><path
       style="opacity:0.841155;fill:#9e0709;fill-opacity:1;stroke:#000000;stroke-width:0.807401"
       d=""
       id="path17"
       transform="scale(0.26458333)" /></g></svg>
