<svg width="100px" height="100px" viewBox="0 0 3125 3125" xmlns="http://www.w3.org/2000/svg" fill="#ee2224"><path d="M540 1958c-36.5 -41.625 -56 -108.125 -61.75 -184.25l5.25 -51.25 35 34.5c42.5 41.5 49.625 48.75 51 110.25 0.5 28.375 2.5 65 5.875 77.25 3.25 12.25 5.25 41 4 42.5 -1.25 1.25 -28.75 -17.125 -39.25 -29.25zm-51.875 348.25c-22.5 -13.375 -82.875 -53.5 -100 -70.25 -32.125 -31 -79.625 -103.75 -85 -125 -2.875 -11.5 0.5 -17.875 27.125 -19.25 35 -1.875 38.5 11.25 12.5 -16 -27 -27.75 -90 -145.75 -80.375 -145.75 1.25 0 34.125 6.25 52.5 14 32.5 14 27.875 14.75 27.875 8.5 0 -1.875 -6.25 -12.25 -18.75 -39.25a537.375 537.375 0 0 1 -31 -85.375c-8.125 -32.75 -18.5 -151.25 -14.75 -154.75 3 -3 88 83.75 97.875 102.5 6.5 11.875 10.875 44.5 13.75 68.75 2.5 21.625 18.125 64.5 27 93.125 21.25 68 7.25 88 -16 72.5 -21.25 -14.125 -17.25 -23 -17.25 -2.25 0 18.375 14.125 36 52.5 91.25a218.75 218.75 0 0 1 26.25 64.625c0 1.5 -4.125 1.5 -9.25 0 -26.75 -8.75 -7.5 19.375 42.875 91.875a576.5 576.5 0 0 1 39.5 72c0 5.625 -8.25 1.875 -48.25 -21.625zm202.5 -70c-38.375 -20.625 -91.625 -95.25 -111.75 -134.125 -8.75 -17.125 -14.625 -32.5 -13.125 -33.75 1.5 -1.5 12 1.5 23.25 6.625 11.25 5 25 9.25 30.875 9.375 20.875 0 53 12.5 73.125 47.5 11.25 19.75 33.25 53.125 44.25 68.75 11 15.875 17.125 48.75 17.125 50.375 0 6.625 -20.875 1 -50.25 -11.875l-12.5 -2.75z"/><path fill="#c51012" d="M566.75 2436.25c-130 -19 -275.5 -128.125 -368.125 -266.75 -26.125 -39.5 -69.5 -138.25 -79.625 -169.5 -8 -25 -10.5 -35.375 21 -29.125 13.75 2.75 25.625 4.125 26.75 3.125 1 -1 -12.875 -32.75 -30.875 -70.625 -30.875 -64.75 -48.75 -140 -44.625 -144.375 1.25 -1 16.25 8.75 33.75 21.25 30 22 48.25 41.25 53.5 36 1.25 -1.25 -3.25 -17.75 -10 -36.625 -25.375 -70.375 -27.25 -82.5 -29.75 -154.625 -2.125 -68.75 22.5 -144.75 31.25 -144.75 1.875 0 12 14.375 22.5 32 24.25 41 51.25 83 59.125 83 7.25 0 21 -38 36.25 -86.25 13.25 -41.5 62.75 -120.25 90 -162.5l23.25 -26.25 -5 33.375c-1.25 21.625 -0.875 65.875 -1.875 70.5s0 32.5 2.5 56.75c5.25 55.25 16.25 68.125 61.875 114.125 62.25 63.125 128.75 94.625 183.75 88.375 38.5 -4.375 62 -18.5 144.75 -51.75 145.25 -58.375 205.75 -74.5 295.375 -78.5 51.25 -2.25 73.125 3 132 8.125 56.25 5 120 17.5 81.25 37.5 -2.875 1.75 -19 28 -39.625 55.25a665.5 665.5 0 0 0 -52 77.75c-16.25 32.25 -47.75 49.625 -50.25 23.5 -3.75 -37.5 -16 -12.5 -44.25 60.875 -24.5 63.75 -28.75 116.875 -29.25 183.75 0 35 -9.625 55.375 -10 55.375 -0.5 0 -11.25 7.5 -23.5 2.25 -12.25 -5 -25.25 -8.125 -28.75 -6.75 -11 4.125 5.375 15 35.75 79.375 15 32.25 29.125 71.75 29.125 76.25 0 4.75 -4.375 9.625 -9.75 11.25 -15.375 3.75 -1.25 25 33.75 87.5 16.875 30.25 29.75 55.875 28.75 57 -6.625 6.5 -282.125 57.5 -358.75 66.875 -73.5 9.125 -177.5 12.5 -210.75 7.875zm15 -88.25c3.75 -3.75 -9.25 -22.25 -50.375 -71.625 -46.25 -55.75 -60 -79.5 -60 -85 0 -2.75 19.5 -4.5 29.125 -5.25 15 -1.25 12.25 4 13.5 -6.875 1.25 -10 -10 -8.75 -31.5 -30.375 -28.25 -28.5 -70 -108.25 -65.375 -112.75a89.75 89.75 0 0 1 41.5 2c39.25 13.125 28.75 23.125 28.75 4 0 -12.25 -2.875 -5.5 -13.125 -12.875 -30 -21.625 -65.75 -127.5 -70.375 -196.75l-0.5 -63.5 39.625 26.75c19.375 20 26.75 40.5 36.25 66.625a432.5 432.5 0 0 0 28.5 60.5c26.875 41.75 82 87.25 105.5 87.25 17.125 0 14 -1.875 -2 -19.625 -19.75 -22 -31.5 -110 -24.5 -147.125l9.5 -28.75 30.875 21.25c14.75 13 24.625 34.75 32.75 38.75 27.75 13.5 41.25 11.25 14.125 -3 -23.25 -12.125 -45 -30.375 -63.75 -73.375 -25 -57.75 -12.5 -54.5 -21 -30 -9.625 27.5 -40.625 12.25 -71.625 -42.125 -8.125 -14 -13.75 -27.875 -18.75 -32.25 -8.125 -7.25 -9.375 -7.25 -15 -0.625 -3.375 4 -4.25 13 -10 41.25 -6 28.5 -16.25 67.5 -17.25 68.75 -1.25 1 -24.25 -18.375 -33.375 -33.375s-14.625 -26 -21.25 -32.125c-10.75 -10.25 -11.75 -5.75 -25.5 0s-15.375 5.25 -25 -5.75c-5.5 -6.625 -26.25 -35.75 -36.625 -54.625 -35 -64 -31.875 -66.875 -41 -3.5 -6.875 46.5 -2.5 133.5 11.875 190.25 5 20 17 56.5 17 58.75 0 2.5 -15.75 -7 -26.5 -15 -10.75 -7.75 -22.5 -16.625 -27.25 -16.625 -8 0 -8.75 2.5 -6.25 20 1.5 11.25 17.5 31.25 31.5 62 32.875 72.125 40.375 86.625 28.5 90.375 -32.5 10 5 101.625 74 169.125 29 28.5 77 58.375 107.875 74.375 40.375 20.75 90.25 48 99 39.25zm219 -82.25c13.375 -1.75 21.625 -5.25 21.625 -9.125 0 -3.375 -8.25 -3.125 -25.625 -17a530.375 530.375 0 0 1 -43.75 -38.75c-14.125 -15 -70 -109.625 -67.25 -112.5 1 -1 10.75 1.625 21.625 6 46.25 18.5 100 38 100 19.625 0 -9 -2.5 -3.75 -37.5 -9.75 -27.5 -4.75 -38.75 -6.875 -74.75 -38.75 -21.875 -19.25 -30.875 -19.625 -34.625 -1.25 -5.75 29.125 -35.5 21.625 -88.75 -12.25 -39.75 -25 -31.25 -32.125 -27.75 -0.75 5.625 47 47.875 115 99.625 162 31.625 28.5 55.5 37.125 96.875 42.5 44.375 5.625 35.75 13.375 60 10z"/><path d="M580.75 1670.625c-57 -18.75 -130.375 -76.625 -152.5 -121.5 -11.25 -23.75 -14.625 -37.5 -7.5 -57.5a650.25 650.25 0 0 1 62.25 -117.5 1618.75 1618.75 0 0 1 120.375 -138.75c16.625 -15.375 39.25 -4.75 36.25 6.25 -11.5 43.75 -26 85.5 -18.5 122.125 13.25 65.75 45.875 122.5 90 154.125 32.5 22.875 69.5 27.875 139.5 31l89.25 9.125 -115.875 53.25a2360 2360 0 0 1 -120 48.75c-39.5 13.75 -96.875 19.25 -123.125 10.5z"/><path fill="#f26722" d="M515 1148.75c-18.75 -20.25 -37.25 -73.75 -44.5 -101.625l-7.125 -31.625c2 -18.75 70 31.75 78.5 75.875 3.5 18.75 11.25 37.5 10 53.75l-10.625 27 -26.5 -23zm185.375 247.5c-9.375 -10.375 -14.375 -43.75 -5.75 -63.75 8.25 -19.375 64.125 -74.5 68.75 -70s-12.875 123.25 -19.5 131.25c-6.75 8.5 -34.25 12.5 -43.375 2.5zm610.75 955.875a253.625 253.625 0 0 1 -43.25 -50c-19 -33.25 -34.25 -113.25 -37.875 -147.5l-2.75 -27.25 11.25 5.625c20 10.625 69 47.5 79 63.75 5.375 8.5 11.875 30.625 14.375 48.75 2.5 18.375 4.125 53.75 10 74.625l15.5 54c-0.5 0.5 -31.75 -10 -46.25 -22.875zm373.875 -202.375c-77.75 -77.875 -93.75 -90.25 -99.125 -143.75 -2.5 -24.25 -4.5 -70.375 -7.5 -88.25 -5 -30.75 -4.625 -34.125 6.625 -60.625 33.125 -78.375 13.5 -200 -26.875 -252.875 -6.75 -8.75 -10.375 -16 -8.125 -16 11.25 0 88.125 44.625 119.25 77.5 60.375 63.5 106.5 137.5 125.875 211.625 14.125 52.5 18.5 171.25 6 217.5 -9.25 33.75 -49 111.875 -55 111.875 -2.25 0 -29.625 -25.625 -61 -57.125z"/><path fill="#d36426" d="M1126.5 891.25c-39.25 -10.625 -75.75 -38 -123.75 -105a359.75 359.75 0 0 1 -30.75 -58.125c1.25 -1.25 52.125 36 81.5 61.75 29.375 25.5 72.75 58.75 90 70.5a248.75 248.75 0 0 1 39.375 34.125c0 3 -34.25 2.125 -56.25 -3.75z"/><path fill="#fc0" d="M1130.625 955.25c-45.375 -11.75 -151.25 -89.375 -96.5 -83.75 50 5.25 96.75 26.5 145.5 30.375 31.875 2.5 65.875 10.375 68.75 13 3.375 3.25 3.125 22.5 -7.25 32.75 -20 20 -66.875 22.75 -110.75 7.5zm69 -76.5a523.5 523.5 0 0 1 -128.375 -89.75c-60.625 -55 -126.875 -81.75 -171.75 -88.125 -15.25 -2.125 -28.75 -5 -30.375 -6.5 -7 -7.125 26.5 -34.625 78.375 -34.625 65.375 0 76.25 9.75 145.375 59.125 56.875 40.75 92.25 62.5 128.25 75.5 40.75 14.75 59.5 36.5 59.625 71.875 0 16.875 -15 31.625 -18.25 32.75 -2.75 1.25 -36.25 -6.5 -62.75 -20z"/><path fill="#cb2127" d="M2457.5 2428.25a996.875 996.875 0 0 1 -113.125 -18.75 2471.25 2471.25 0 0 0 -283.375 -49.375l-102.75 -13.75c-2.75 -2.75 1.25 -12 10.625 -25.25 20 -27.5 37 -66 41 -91 2.875 -18.125 2.125 -20.5 -6.75 -22.875 -5.375 -1.5 -10 -4 -10 -5.75s14.5 -23.25 29 -55.25c25 -55.5 35.375 -93.75 26.625 -99 -2.5 -1.25 -12.5 0.25 -22.5 3.75s-17 -11.25 -18.125 -12.25c-1.25 -1.25 -2.5 -35.25 -4.375 -78.25 -2.875 -61 -4.125 -79.125 -11.875 -101 -12.25 -34.75 -38.75 -97.5 -53 -110.75 -9 -8.75 -11.25 -9.125 -17.125 -3 -3.75 3.75 -10.5 21.25 -15 38.75 -12.5 50.25 -80.875 165.625 -86.25 150.5 -23.5 -67 -47.5 -128.375 -58.75 -150.875 -43.75 -87.5 -92 -150.25 -186.5 -195.5 -34 -16.25 -50.375 -28.25 -56.25 -18.5 -5.375 8.75 2.5 22.5 18.375 32.5 31 19 68.75 106.5 68.75 145.5 0.25 23.25 -17.5 81.25 -28.25 101.75l-7 13.75 -28 -28.75c-15.5 -15.875 -29.75 -28.75 -31.875 -28.75 -7.5 0 -9.375 9.75 -10.625 61.5 -1.25 53.75 -25.25 81.625 -37.875 77.5 -8.75 -2.75 -30 -45 -38.75 -77.5 -9.625 -34.75 -11.25 -63.75 20 -143.25 20.625 -52.875 24.5 -40.5 -4.75 -25.625 -38.375 19.5 -123.375 131.25 -131 165a296.25 296.25 0 0 1 -36.625 80.25c-7.125 4.25 -58 -47.5 -70 -71.75 -16.625 -32.5 -23.375 -71.25 -12.875 -101.25 19.125 -54.25 77.875 -127.875 193.75 -247.875 140.375 -145.5 170.75 -190.375 164.625 -275 -2.75 -39.125 -13.25 -60 -41.25 -90 -27.5 -29.25 -57.125 -47.5 -119.625 -73.375s-112.5 -56 -143.125 -83.125l-24.5 -27.125 20.375 -26.25c41.25 -54 51.75 -88.75 36.25 -135 -4.375 -12 -6.25 -25 -5 -29 4.375 -11.25 57.125 -28.75 92 -32 38.75 -3.375 94.125 3.75 128.75 16.75 115.375 43.125 240.75 189.75 285.25 336.25 11.5 38.125 19.25 63.375 19.375 133.5 0 60.25 -5 88.75 -15 155.25 -19.5 132 -26.25 133.75 15.75 175.875 40.25 40.375 32.875 38.125 163.375 15.375 48.75 -8.5 92.25 -5.625 146.625 -3.5 95 3.75 94.5 5 302.5 78.75 56.625 20 62.75 21.25 98.375 21.25a146.25 146.25 0 0 0 62.5 -11.75c134 -51.25 196.875 -153.5 174.375 -282.125 -3.75 -21.625 -12.25 -68.375 -11.25 -69.375 8 -8.25 98.75 148.5 126.75 228.125 18.5 52.875 8.5 56.25 22.5 51.75 11.25 -3.75 34.125 -37.25 57.25 -80 11.625 -21.25 30.5 -45 32 -40.625 6.25 17.5 23 95.625 23.125 138.75 0 66.5 -6.25 123.75 -24.75 171.25 -8.75 22.5 -16.75 28.75 -16.75 31.25 0 8.75 12.125 -3.75 40.75 -19.25a177.5 177.5 0 0 1 41.25 -16c10 0 3.75 41.25 -29.625 117.125 -19.25 44 -35.375 70.25 -35.375 72.5s12.25 -5.5 27.5 -7.125c15.5 -1.625 37.125 -5 33 2.875 -0.625 1.25 -12.25 39.125 -20 58.75 -71 178.75 -194.5 307.875 -340 371.75 -67 29.25 -134.5 35.875 -210.625 29l-1.875 -0.625zm115.25 -81.75c64 -23.375 123.75 -59.75 159.25 -98.5 42.125 -46.25 83.25 -112.875 87.5 -151 2.125 -18.75 -6.25 -7.5 -15 -10 -5.375 -1.25 -10 -3.75 -10 -5.375s12.875 -32 28.5 -67.5c30.875 -69.75 47.125 -100.25 34 -100.25 -4.125 0 -17.5 6.25 -29.625 13.75 -12.5 7.5 -25 11.75 -25.875 11.25 -0.5 -0.625 2.125 -11.5 6 -24.25 16.875 -55.25 28.75 -105.25 28.5 -145.75 -0.25 -70.25 1.25 -128.375 -13.125 -119.375 -3 1.875 -20.25 25.25 -38.5 52 -18.25 27.125 -40.375 50 -44.125 50s-10.75 -2.125 -15.375 -4.625c-12.5 -6.5 -21.25 -1 -43.75 36.25 -16.25 27.5 -32 51.875 -34.125 41.875l-13.125 -70.5c-13.375 -69.5 -11 -73.75 -32.5 -31.25 -15 30 -52.75 71.875 -57.25 73.75 -11 5 -14.125 -4.625 -20 -12.5 -15.5 -21.25 -12.75 -10 -19.5 17.5a115 115 0 0 1 -61.25 80c-18.75 9.625 -23.25 6.25 -13.5 16.25 11.75 11.625 10 -5 40 -33.125a219.625 219.625 0 0 1 44.25 -32.25c7.875 0 17.5 30 13.125 64.625 -6 47.5 -16.25 84.625 -33.375 110.5 -17 25.75 -19.625 12.125 1.25 12.125 22.5 0 25.25 -2.5 59.625 -36.25 36.25 -35 50.75 -57.5 62.25 -88.25 4.375 -11.75 19.625 -41.25 26.75 -52.5 12.5 -19.5 72.5 -77.75 72.5 -73.375a1535 1535 0 0 1 -26.625 163.25c-12.5 36.75 -23 48.75 -52.5 94.125 -12.5 19.5 -20.625 32.5 -20.625 36 0 9 6.875 -6 35 -17.125 13.375 -5.25 41.25 -4.75 44.75 -4 8 1.75 -36.875 83.75 -73.125 123.75 -37.75 42 -41.5 30.625 -5.75 28.125 27.5 -2.125 29.75 16.875 -39.625 98.25 -49.5 57.875 -58.75 61.5 -55 67.5 5 8.375 9.125 2.5 48.75 -11.875zm-206.5 -70c58.75 -9.625 94.625 -42.5 136.75 -98.375 33.375 -44.25 40 -55 54 -92.5 21.75 -57.75 30 -49.5 -18 -20.25a275.75 275.75 0 0 1 -85.5 31c-3.125 0 -7.875 -8.125 -10.625 -18.375 -6.75 -24.75 -0.875 -21.875 -32.125 5.25 -26.75 23 -65.875 37.75 -82.5 37.875 -12.875 0 -33.375 0.875 -33.375 6.25 0 2.5 6.875 7.5 15.75 11 18.25 7.5 30 -5.875 65.75 -19.625a63.75 63.75 0 0 1 36.25 -1.25c9.75 10 -53.25 98.125 -110.75 143.75 -21.25 17.125 -28 5 -20 11.25 10 7.5 42.125 11.25 83.75 4.375zM1507.75 910.75c10.375 -11.25 11.25 -9.5 11.25 -18.75 0 -15 4.375 -8.75 -13.25 -0.75 -11.25 5 -20 -2.75 -49.5 -33.5 -28.25 -29.375 -27.75 -32.5 -51.625 -38 -32.5 -7.25 -48.5 -6.25 -61.75 11.75 -8 10.625 -5 7.75 -1.25 22.5 5 20.625 11.5 22.875 53.125 29.5 30.875 5 51.875 12.5 72.5 29.75 18.125 15 11.75 20.25 30 0.75l5 1.5 5.5 -5z"/><path fill="#ed2224" d="M1350 2453.375a370.75 370.75 0 0 1 -199.75 -96.875c-28.375 -26.875 -78.75 -104.5 -78.75 -114.125 0 -1.75 13.75 -3 30.375 -3s30.375 -1.25 30.375 -2.75c0 -1.625 -12.5 -20 -27.25 -40.875 -42.125 -58.75 -69.375 -122.5 -60.25 -122.5 0.625 0 13.25 4 27.75 9.125 25 8.75 50 12.5 50 7 0 -1.25 -12.75 -9 -23.5 -34 -16.75 -38.5 -20 -51.25 -21.5 -83.75 -1.625 -35.25 15 -61.25 35.25 -129.625l22.25 -75 19.125 38.75c24 48.75 55 95.5 83.5 128.5 32.5 37 45.625 76.5 48 146.5l-11.75 58.375 -10 -11.625c-36.875 -42.5 -38.25 -43.375 -47.125 -26.875 -8.125 15 1 79.25 13.25 126.75 18 70.5 44.5 103 98.25 140 38 26.25 72.25 47.5 72.25 32.125 0 -2.75 -9.25 -17 -20.5 -31.5 -36.25 -46.75 -42.5 -98.25 -42.5 -152.875l-0.25 -32.125 49 46.25c32.5 31.25 39.5 43.375 52.875 35 11.75 -7.5 4.75 -14 -8.5 -15.875 -17.5 -2.5 -62.875 -47 -72.875 -74a161.25 161.25 0 0 0 -11.875 -26.75c-5.625 -6.5 -14.5 5 -21.25 17.25 -13.125 24.625 -23.75 -3.75 -30.25 -80 -11.25 -133.125 14.75 -243.75 82.5 -324.375l33.75 -31.25 -6 78.25c-0.375 55 -0.25 55.75 17.5 91.25 20.875 42.5 55.375 65.5 144.25 146.25 36.25 32.5 88.5 85.5 124.125 119.25l60.375 55.75c5.625 0 19.75 -38.75 31.25 -69.125a505.875 505.875 0 0 0 32.75 -127c9.75 -72.5 15.875 -85.875 47.5 -126.625a513.25 513.25 0 0 0 47.5 -80l26.25 -50.75 19.125 35.875c53.375 117.5 63.75 147.75 25 241.875 -10 24.75 -18 46.25 -18 48 0 5.875 22.875 0.5 50 -8.75 15 -5.25 28.25 -8.5 29.375 -7.5 3.75 3.75 -25.75 59.375 -53.75 96.25 -30.875 40.75 -38.75 54.25 -35 60.625 1.625 2.5 15.5 4.5 30.875 4.5h27.875l-30.25 52c-64.625 94.625 -154.75 143 -236.75 157.5 -73.75 12.75 -324.5 15.5 -395 6.25zm173 -451.25c-15.75 -16.5 -36.875 -40.875 -36.875 -45.5 0 -4.75 11.25 -36.25 17.5 -48.75s12.5 -25 12.5 -31.875c0 -40 14.375 -22.25 38 15 33.125 52 34.75 139.5 11.25 141.25 -3 0.375 -26.875 -13.75 -42.5 -30zm1002.25 -27c8.75 -23.75 10.875 -54.375 11 -86.25 0.25 -43.25 3.75 -78.75 38.75 -116.625l51.25 -38.75 0.25 35.875c0.25 44.125 -7.5 123.125 -22.875 153.5 -12.125 23.375 -93.375 99.5 -87.125 82.5l8.25 -30zm-192 288.375c2.5 -3.375 19 -30.375 28 -42 9.125 -11.25 30.375 -36.625 39.75 -52.5 27.5 -46.25 57.5 -67.875 112.5 -78.75 18.5 -3.75 27 20.625 3 61.25a247.125 247.125 0 0 1 -103.25 95.25c-39.625 18.25 -86.75 26.25 -80 17zm250.5 69.5a100 100 0 0 1 16.25 -52.5c67.75 -93.75 72.125 -88.25 49.625 -96.75 -6.25 -2.5 -6.625 -19.75 -6.625 -22.125a135 135 0 0 1 22 -39.125c23.75 -28 48.75 -76.75 48.75 -94 0 -13.125 -6.25 -14 -30.25 -3.75 -9.625 3.75 -18.5 6 -19.75 4.75s12 -39.375 21.25 -65.5c9.375 -26.25 19.5 -75.25 25.5 -104a275 275 0 0 1 56.875 -127.5c42.5 -57.75 76.625 -75 62.5 14.5 -12.875 78.375 -21.25 155.5 -51.25 196.625 -28 38.125 -25.75 34.625 23.75 11.75 13.75 -6.25 34.125 -1.25 35.25 0 3.125 3.125 -20 66.5 -56.875 121.75 -17.5 26.25 -29.5 30.25 -29.5 33.25 0 3.75 5.625 -2.75 25.625 -5 18.75 -1.875 28 8.75 28 12.125 0 10.375 -46.25 90.875 -66 115 -25.625 31.25 -70.5 62.5 -107.75 85 -28.75 16.875 -47.5 23.25 -47.5 15.625zm-150 -668.25c-21.875 -5.875 -61.875 -15.625 -87.5 -26 -57.25 -23 -108.25 -43.25 -154.375 -54.25 -53.75 -12.875 -213 -8.75 -279.5 5.25a447.5 447.5 0 0 1 -78 6.25c-2.875 -3.125 81.875 -49.375 130.5 -61.75 86 -21.875 137.875 -23 243.125 -11.25 120 13.75 137.875 13.125 190.375 -12.25 94 -45.5 132.5 -128.125 118 -214.625 -2.875 -17.5 -13.75 -70.875 -15.625 -77.125 -3.25 -11.25 27.25 15.5 45.875 30.25 53.25 42.125 156.875 172.25 172.75 213.75a104.25 104.25 0 0 1 -9.5 96c-33.375 50.375 -97.875 100.375 -147.25 115.625 -38.25 11.875 -60 5 -109.125 -8.25l-20 -1.75zM470 1231.5c-6.75 -8.375 -24.375 -109.25 -19.75 -113.75 5.75 -5.875 45.875 15.375 61.25 39.375 14 22.5 17.5 69.625 7.5 79.625 -7.125 7.5 -42.875 2.25 -49 -5z"/><path fill="#f93" d="M2390.25 1366.25c-8.75 -9.25 -25.375 -81.25 -25.375 -105.5 0 -17 35 -8 57.125 11.25 21 17.875 40.375 80 40.375 100.5 0 26.25 -32.875 12.5 -59 16.5l-13.375 -22.75zm173.375 -194.125c-10.75 -8.125 -10.75 -22.875 -10.75 -43.5 0 -31 14.625 -63.375 46.25 -98.75 37.5 -41.75 61.25 -36.25 43.375 58.75 -12.5 65.25 -23.75 100.5 -42.75 100.5 -7.5 0 -29.75 -11.875 -36.5 -17.25z"/><path d="M1287.5 1568.5c-35 -8.75 -85 -17.5 -161.25 -26.25a336.25 336.25 0 0 1 -62.5 -14.5 102.125 102.125 0 0 1 35.5 -12c85.25 -8.75 209.5 2.75 231.25 22 7.25 6.25 4.5 25 0 28.25 -4.5 3.125 -30 5.75 -42.875 2.5zm-269.375 -20.75c-7.5 -0.875 -11.25 -7.25 -8.25 -10 2.5 -2.5 11.5 -7.25 17.5 -6.25 6.75 0.75 19 9.125 19 11.25 0 0.625 -6.25 5.375 -9.125 5.875 -4.25 0.375 -16 -0.5 -19.5 -1z"/><path fill="#000000" d="M1288.375 2453.125a376.25 376.25 0 0 1 -89.5 -42.875c-48.25 -34.5 -68.125 -33.75 -285.375 10.875 -207 42.5 -283.25 45.875 -380 17.125 -176.75 -52.5 -300.75 -159.25 -385.75 -332.5 -28 -57 -54.5 -122.5 -58.75 -145.75 -7.5 -39 -6.25 -40.875 16.875 -28.375 24.375 13 24.25 10.75 -4.375 -68 -16.25 -44.75 -29.625 -96.25 -29.625 -114.375v-33l77.25 73.75 -10.25 -37.5c-23.125 -83.75 -0.375 -319.25 30.75 -318.75 5 0 20 29.25 33.75 64.75 13.75 35.625 31.25 66.625 38.75 69 7.5 2.5 20.75 -19.75 29.375 -49.25 23.75 -80.375 72.5 -164.125 127.125 -217.25 52.5 -51.25 59.375 -45.875 30 24.25 -10.25 24.625 -18.75 68.75 -18.5 98.375v53.25l37.875 -68.75c51.375 -94.125 223.25 -266.875 244.25 -245.625 3.75 3.75 -6 23.75 -21.5 44.75 -38.375 51.75 -47 157.125 -17.75 215 60 118.5 112.5 135 318 99.5 174.25 -30 266.25 -32.5 335 -8l50 17.5 69 -70.625c83.125 -85.25 109.125 -133.75 109.125 -203.375 0 -44.625 -7.125 -59.25 -47.5 -97.5a372.25 372.25 0 0 0 -112.125 -67.125 507.5 507.5 0 0 1 -121.25 -65.375c-31.25 -23.75 -65.25 -43.375 -75.75 -43.375 -38.125 0 -113.125 -40 -158.75 -84.5 -53 -51.5 -64.625 -88.375 -20.5 -65l26.25 14.25 -23.25 -40.625c-16 -28.125 -45.5 -50.625 -95 -72.875 -39.625 -17.5 -72 -36.25 -72 -41.25 0 -17.5 73.75 -47.5 115 -47.25 48.25 0.375 133.5 36.5 159.125 67.5 10 12 40 32.875 66.5 46.5 48.375 24.75 48.375 24.75 101.5 -0.875 118.25 -57.25 248.75 -19.5 375.75 108.75 83.25 84 128.75 170.875 148 283.75 11.75 68.75 10.5 105 -7.25 210.625 -25.625 151.875 -25.875 160.25 -5.625 188 15 20.25 20 20 89.625 -3.75 122.5 -42.25 210.25 -51.25 345 -35.375l121.25 14.25 58.75 -34.375c104 -60.875 131.25 -146.25 81.75 -255.625 -30.25 -66.875 -30.25 -68.125 -0.875 -52.5 46.25 25 167 144.125 208.75 206.25 48.5 71.875 55.375 52.875 19.125 -52.25 -17 -49.5 -18.75 -65.875 -6.875 -65.875 33.75 0 140.625 166.875 162.25 253.25 4.625 18.75 13.25 37.5 19 40.75 11.25 7 35.5 -29.75 55.5 -84.625 6.875 -18.75 18.125 -35 25 -36.25 35 -5 58.75 235.875 30.375 310l-13.5 35.375 38.125 -36.625c21.25 -20 41.625 -33.125 45.75 -29 9.25 9 -27.125 138.5 -52.5 187.5 -18.75 36 -8.75 45.5 19.5 18.75 30 -28.25 5.625 71.625 -41.5 169.125 -73.75 153.125 -205.625 278.25 -345.875 328.75 -80.625 28.75 -199.125 25 -346.25 -11.25 -70.625 -17.5 -181.25 -35.5 -245.625 -40 -114.375 -8.75 -118.375 -8 -161.75 25 -73.75 56.625 -141.25 69.5 -356.875 68.75 -122.75 -0.625 -214.125 -7 -246.875 -17.25zm505.25 -24.375a342.875 342.875 0 0 0 170.25 -133.125l32.875 -49.5h-31.25c-39.25 0 -39.25 -6.25 0.25 -53.125a485.5 485.5 0 0 0 51.25 -75.5c18.75 -35.625 18.375 -37.125 -3.5 -28.125 -44.5 18.125 -70 22.875 -65 11.625 57.125 -117.875 59.625 -165.375 14.25 -267.5l-25 -56.25 -21.25 50a336.25 336.25 0 0 1 -54.5 84.625c-27 28.125 -35 51 -41.25 119.5 -4.375 50 -19.625 108.75 -36.875 143.75 -16.25 32.5 -30.875 58.75 -32.875 58.75s-36.25 -32.5 -75.875 -72a3110.125 3110.125 0 0 0 -150.625 -138.375c-97.75 -83 -133 -147.5 -124.25 -226.25l6.25 -57.125 -36.5 43.75c-48.25 57.75 -73.5 146.75 -72.5 255.5 1.25 98.375 14 152 28 115.625 10 -25.75 33.75 -28 33.75 -3.375 0 25 61.25 94.75 83.25 94.75 10 0 15 5.75 10.625 12.5 -12.875 20.875 -31.25 14.5 -69.75 -23.75l-36.625 -36.625v42c0 53.25 19.375 104.625 53 140.5 24.5 26.25 24.75 28.125 3.5 28.125 -46.75 0 -128.25 -60.875 -154.375 -115.375 -28.5 -59.625 -47 -171.75 -33.75 -205.875 7.5 -20 10.75 -19.25 32.5 8.75l23.75 31.25 0.375 -74.25c0.25 -66.25 -3.75 -78.75 -38.25 -114.25a448.5 448.5 0 0 1 -67.125 -99.125l-28.875 -59.5 -19.75 61.25c-41.25 128 -40.25 146.625 14.5 259.75 5.625 11.25 -20.25 6.5 -64.625 -11.75 -22.5 -9 -22.5 -7.875 -1.25 33.125a679.875 679.875 0 0 0 52.75 83.125l30.875 40.75h-68.75l21.875 34.375a348.75 348.75 0 0 0 245 163.75c92.5 16.25 385.75 6.25 445.625 -15zm-838.75 -39.125 164.5 -35 -36.5 -64.625c-41.75 -73.75 -43.375 -81.5 -18.5 -81.5 13.75 0 8.75 -17.5 -18.75 -70 -34.625 -66.25 -45.75 -105 -29.75 -105 3.75 0 18.75 6 32.75 13.75 24.375 12.875 25.375 11.25 17.875 -29 -10 -53.75 8.5 -153.75 43.5 -235 26.25 -61.25 48.75 -81.25 48.75 -43.75 0 27.25 22 22.875 31.25 -6.25 4.375 -13.75 30 -52.5 56.625 -86.5l48.75 -61.625 -89.625 -15c-125.625 -21.25 -237.125 -3.125 -391.875 63.125 -146.25 62.75 -196.25 71.75 -257.5 46.25 -65 -27.25 -143.75 -103.25 -161.25 -155.25 -8.375 -26.25 -11.625 -76.25 -7.5 -120.875l6.875 -76.25 -41.25 65a693.5 693.5 0 0 0 -63.125 137.5c-12.125 39.5 -26.75 77.125 -32.5 83.25 -5.625 6.25 -28.5 -18.125 -51.25 -55l-41.375 -66.625 -8 36.25c-17 78.75 -10.5 186.25 14.625 241.625 13.75 30.375 22.125 57.875 18.75 61.25 -3.25 3.375 -26.25 -9.25 -50.625 -27.875l-44.375 -33.75 8.5 35.25c5 19.25 25 68.375 45.5 108.75l36.75 73.5 -32.25 -6.25c-43.125 -8 -41.625 6.25 12.5 114.375 79.75 159.625 229 289 375.25 325.5 76 18.75 233.75 7.125 413.125 -30.875zm-437 -50c-72.25 -26.625 -148.5 -87.125 -192.75 -152.875 -48.25 -71.75 -65 -128.25 -38.375 -128.25 13.75 0 9.75 -16.875 -17.5 -70.5 -49.375 -98.25 -47 -129.375 6.25 -82.5 24.125 20.875 24.75 20.75 15.875 -3.25 -34 -92.75 -38.75 -281.25 -7 -281.25 6.25 0 20.625 18.125 32 40.5 32 63.125 43.5 74.125 61.625 59 11.75 -10 23.125 -1.25 45 34.125l29.625 47.5 11.25 -65.75c6 -35.875 15.75 -65.375 21.5 -65.375s21.875 22.5 36 50c26.625 52.5 57 65.25 65.875 28.125 3.75 -16.5 8.75 -12.75 20 15.75 26.625 68.5 41.625 91.25 67.75 102.75 18 8 21.25 14.375 11 20.875 -8.75 5.5 -30 -5.875 -52.25 -28.125l-37.5 -37.5 -7.125 28.75c-8.125 32.5 14.125 127 32.5 138.375 6.75 4 12.25 15 12.25 24.25 0 56.25 -141.5 -63.5 -156.625 -132.75 -5 -23.125 -22.5 -55.375 -38.75 -71.75l-29.75 -29.75v55.5c0 55.875 53.125 185.375 76.25 185.375 6.25 0 11.25 8.375 11.25 18.75 0 22.125 -1.25 22.5 -42.875 6.5 -17.5 -6.875 -32 -8 -32 -2.5 0 15.875 76.25 114.5 88.75 114.5 6.25 0 11.25 9.125 11.25 20.25 0 14 -7.5 18.125 -24.625 13.75 -32.5 -8.75 -20.25 14.75 48.75 92.875 28 32 51.25 61.25 51.25 65.625 0 11.25 -26.5 7.5 -78.75 -11.625zm-33.125 -89.625c-53.75 -75 -64.375 -108.75 -30.625 -95.75 11.625 4.375 1.625 -16.625 -24 -50.25 -45.875 -60.375 -66.25 -105 -53 -117.875 4.25 -4.25 14.25 -1 22.5 7.125 29.125 29.25 31.875 13.75 8.5 -47.875 -13.125 -34.5 -24 -83.75 -24.375 -109.375 -0.5 -36.875 -11.25 -58.75 -51.25 -103.125l-50.875 -56.25 7.125 85.625c4.75 58.25 17.25 104 38.75 142.5 17.5 31.25 29.625 59.375 26.625 62.25 -2.875 2.875 -22.5 -3.75 -43.75 -14.75s-38.75 -15.375 -38.75 -9.625c0 15 70 123.25 86.25 133.25 25.5 15.5 14 35 -17.5 28.75 -40.625 -7.875 -39.625 0.375 9.25 73.25a352.875 352.875 0 0 0 108.75 101.25c37.5 22.5 70 40.875 72.5 40.875s-18.5 -31.875 -46.25 -70.875zm84.625 -312.5a240 240 0 0 1 -6.25 -86.25c5.375 -33.25 -0.5 -46.5 -36.25 -81.25l-42.75 -41.5v43c0 65 22.25 131.75 57.75 173.75 17.5 20.875 33.75 38 36 38 2.5 0 -1.5 -20.75 -8.5 -46.25zm120 315.875c-51.5 -22.5 -124.75 -110.5 -147.5 -177.5 -20.875 -61.25 -10.875 -69 38.75 -30 37.5 29.5 78.5 32.75 78.5 6.25 0 -27.25 16.5 -23.125 50 12.5 17.5 18.75 43.125 31.25 63.75 31.25 19.125 0 37.875 5 41.625 11.25 13.25 21.25 -32 25.75 -75.625 7.5l-43.75 -18.25 29.25 52.875c15.875 29 47 64 69 77.75s40 29.375 40.375 34.5c0.625 15.625 -103.25 9.75 -144.25 -8.125zm41.75 -43.25a336.25 336.25 0 0 1 -46.625 -75c-10.25 -24.625 -25 -39 -40.5 -39 -13.375 0 -36 -6.25 -50.375 -14 -22.75 -12.25 -25 -11.25 -17.125 9.375 18.25 48.375 64.5 103.75 107.125 128.5 64 37.125 83.375 33.125 47.5 -9.75zm1921.5 188.75c150.375 -58.75 275 -191.25 343.5 -364.625l25 -63.75 -31 7.875c-17.125 4.25 -31.25 5 -31.25 1.25s17 -42.125 37.5 -85.75c49.625 -104.75 48.75 -119.625 -4.125 -86.75 -23.25 14.25 -45 22.875 -48.75 19.25 -3.75 -3.75 4.125 -27.25 17 -52.5 24.125 -47.25 31.75 -171 15.625 -251.625l-7.5 -39.125 -24.125 48.75c-13.125 26.625 -34.375 57.875 -47.125 69.375 -21.875 20 -24 17.5 -44.75 -45.75 -23.75 -72.5 -67.75 -164.5 -97.75 -203.75 -17.5 -23.125 -17.875 -20.625 -6.625 30 26.625 120 -35 233.5 -157.5 290 -72.125 33.125 -123.75 28.75 -243.75 -21.25 -153.125 -63.5 -273.75 -79 -404 -51.875 -98 20.25 -103.5 20.25 -133.5 -1.75 -60.375 -44.25 -66.875 -76.625 -43.25 -217.5 28.75 -168.75 20.375 -250.75 -36.875 -366.5 -49.375 -100 -139.5 -192.5 -225.75 -232 -88.75 -40.75 -245 -24.375 -224.75 23.5 23.25 55 20.625 79 -13.375 123.75l-35.5 46.875 38.5 34.5c21.25 19 72.75 47 114.375 62.25 106.5 38.75 163.75 91.25 172.5 158.75 12.125 91.25 -23 156.75 -153 285.875 -118.75 118.25 -185.625 203.75 -207.5 266.625 -14.125 40.75 4.375 89.375 50 130.625 25.625 23.25 26.25 23.125 38.75 -10 7.125 -18.75 12.875 -38 12.875 -43.125 0 -42.75 150 -205.75 170.5 -185.25 4.125 4.125 -4.5 32 -19 62s-26.25 67.125 -26.25 82.5c0 36.5 32.875 114.25 48.375 114.25 17.5 0 29 -43.5 24.75 -93.5 -4.75 -56.875 6.25 -64.75 36.75 -26 13.75 17.5 28 31.875 31.5 31.875 10.375 0 33.75 -76.25 33.75 -110.375 0 -37.5 -53.75 -134 -80.75 -144.25 -24.75 -9.5 -24.625 -33.125 0.25 -33.125 33.375 0 122.5 50.75 172.5 98.125 52.125 49.5 87.5 110.5 120.5 207.5l21.25 62.125 33.75 -57.875c18.75 -32 37.5 -78.375 41.25 -103.25 4.25 -25 13.75 -43 21.25 -40.5 7.875 2.5 30.875 37.75 51.5 78.5 31 61.25 37.5 89.25 37.5 162.875 0 80.625 2.125 87.75 21.25 75.625 40.25 -25 40 5.375 -0.25 87.125 -22.125 45 -35 78.375 -28.375 74.25 38.75 -24 14.5 66.25 -32.5 119.625 -16.25 18.75 -8.75 21.25 79.75 29.25 92.5 8.25 177.875 23.75 347.5 63.25a429 429 0 0 0 250 -16.25zm-143.75 -35c0 -4.125 28.125 -38.75 62.5 -77.5 68.5 -77 75 -91.25 37.5 -81.25 -30 7.75 -32.875 -11.875 -5.25 -34.75 11.25 -9 37.125 -41.25 58 -71.5 40.625 -59.125 40 -59.625 -36.875 -30.75 -23.5 8.75 -19.25 -6.25 13.75 -50.75 32.5 -43.5 51.25 -97.875 63.375 -181.25l7.5 -53.75 -35.75 41.25c-19.625 22.75 -40 58.125 -45 78.5 -10 41.625 -90 124.125 -130.5 134.75 -31 8.125 -34.375 -11.25 -7.25 -41.25 21.25 -23.5 40.75 -149.75 23.125 -149.375 -6.25 0 -24.375 14 -40.5 31.25 -31.25 33 -46 37.875 -57.5 19.25 -3.75 -6.25 4.25 -15.25 18.125 -19.625 26.25 -8.375 62.5 -65.875 62.5 -99.375 0 -25.375 20.75 -25 35 0.75 9.75 17.25 15 15 36.25 -15.625a329.25 329.25 0 0 0 32.75 -57.5c14.5 -40.25 31.625 -22.5 42.25 43.75l10.5 65.625 29.125 -47.5c23.25 -37.5 32.875 -44.25 46.5 -33 13.75 11.5 24.25 2.75 51.875 -42.75 19.25 -31.5 38.375 -57.5 42.5 -57.5 10.75 -0.625 23.75 67.5 23.75 124.125a458.75 458.75 0 0 1 -18.75 107.875l-18.75 64.75c0 2 14 -5.75 31.25 -17 29.125 -19.125 31.25 -19.125 31.25 1.25 0 12 -16.75 54.5 -37.125 94.625 -25 49.25 -31 70.625 -18.75 65.875 49 -18.75 -23.25 137.25 -91.25 196.75 -68.125 60 -215.5 122.5 -215.5 91.75zm137.5 -65.875c53.75 -32.5 101.25 -81.25 126.25 -129.5 30 -58.5 30 -57.5 -9.375 -50 -20 3.75 -30 1.25 -25.5 -6.25a6380 6380 0 0 1 51.875 -78c53.75 -80 55.25 -93.5 7.5 -66 -43.75 25 -63.75 12.5 -33.25 -21 29.375 -32.5 57.5 -130.5 57.125 -200v-57.5l-43 50c-30 34.75 -45.25 67.125 -50.375 106.25a588.25 588.25 0 0 1 -30.75 115.625c-25 63.75 -24.5 66.25 12.5 46.5 17.125 -9.125 24.375 -9 24.375 0.5 0 21.5 -46.25 106.25 -67.875 124.125 -25 20.875 -25 35.375 0.25 40.375 15.75 3.125 7.5 21 -37 81.625 -56.25 76 -52.5 85 16.875 42.875zm-39.375 -413.25a396.25 396.25 0 0 0 14.375 -94.5v-46.5l-39.625 41.875c-32.75 34.625 -39.125 50.875 -36.75 92.5 1.625 27.5 -3.375 66.875 -11.25 87.5l-14 37 36.25 -35a224.375 224.375 0 0 0 51 -82.75zm-335.25 389.5c0.25 -5.25 18.375 -20.625 40.25 -34.375 36.75 -23.25 96.875 -97.5 96.875 -119.75 0 -5.5 -16.875 -1.5 -37.5 8.75 -20.875 10.5 -48.75 15 -63.375 10.5 -32 -10 -22.75 -21.5 21.25 -26.25 18.125 -1.875 48 -17.75 66.25 -35.375 40 -38 47.5 -39.125 52.875 -7.5 3.5 22 6.75 22.5 41.25 6.25a430.75 430.75 0 0 0 58.75 -33c35 -25.375 38.75 -3.375 10.5 60.75 -32 72.5 -91.75 138.375 -146.875 162 -42.5 18.25 -141.5 23.75 -140.75 7.875zm173.75 -52.75c17.75 -12.5 45.625 -46.5 61.875 -75.375 32.5 -57.5 36.25 -55 -45.375 -31.25 -15.625 4.375 -37.5 25.875 -48.375 47.75a409 409 0 0 1 -46.75 69.5l-26.75 30 36.75 -9a241.25 241.25 0 0 0 68.75 -31.75zM1456.75 914c-11.25 -11.25 -36.75 -21.25 -57 -23.125 -48.375 -3.75 -66 -15.625 -66 -44.25 0 -54.5 98.75 -45.625 133 12.125 15 25.375 26.25 33.25 36.25 25 23.75 -20 32.25 2.875 10 27.5 -25 27.875 -30.875 28.25 -56.25 2.75m-76 -74.75c-12 -11.875 -35.875 7.5 -27 21.75 5.375 8.75 12.5 8.375 21.25 -0.625 7.5 -7.5 10 -16.875 5.875 -21.25zm-41.625 1485.5a323.75 323.75 0 0 1 -17.25 -84.375c-0.375 -27.5 -12.25 -46.875 -44.25 -72.5 -38.5 -30.75 -43.75 -32.125 -43.75 -11.625 0 60 39.5 152.5 78.375 183.125a681.5 681.5 0 0 0 41.875 32c0.875 0 -5.875 -21 -15 -46.75zm435.25 -187.5c37 -82.25 35.75 -208.75 -3 -308.75 -30.5 -79.125 -117.125 -183.25 -178.75 -215l-35.75 -18.75 29.125 39.5c35 47.5 39 158.75 7.875 218.5 -12.5 23.75 -15.875 46.5 -9.5 62.5 5.5 13.75 10.5 49.375 10.875 79.125 0.875 49 8 61.25 72.75 126.25l75.75 73.75c2.125 1.25 15.875 -24.625 30.625 -57.25zm-210.375 -201.875c-19 -63.75 -42.75 -95 -42.75 -56.25 0 13.75 -7.875 36 -17.75 49.375 -16.25 21.875 -14.25 28 21.5 65.25 34.625 35.875 40.5 38.25 47.5 18.75 4.375 -12.25 0.625 -47 -8.375 -77.25zm-761.25 -324.75 112.5 -51.25 -73.125 -0.375c-101.5 -0.5 -151.625 -27.5 -196.25 -105.375 -39 -67.75 -47.5 -138.75 -24.5 -203.75 10 -28.75 0 -21.875 -54 36.25 -63 67.875 -120.75 158.75 -138.75 218.25 -10.75 35.5 55 111.75 124 144 66.625 31.25 113.75 24 250 -38zm1821.25 15.5c27.75 -20 62.5 -56.25 76.25 -81.25 22.5 -38.75 23.75 -50 10.5 -81.875 -18.5 -44.5 -105.375 -151.25 -160 -196.875l-39.5 -32.875 13.25 42.5c28.75 93.75 -31 201 -138.75 248.75 -50.375 22.125 -63.5 22.875 -175.875 8.5 -106.25 -13.5 -133.125 -12.75 -214.375 5.75 -51.25 11.625 -109.75 29.375 -130.375 39.375 -32 15.875 -33 17.5 -6.25 11.25 196.5 -44.25 321 -34.625 491.25 38.125 126.875 54.375 196 54 273.75 -1.25zm-1299.375 -81.625c-17.5 -17.5 -126.625 -30.25 -196.875 -23l-62.5 6.25 88.75 10c48.75 5.25 105 14.125 125 20 40.25 11.25 63.375 4.375 45.625 -13.375zm-288.375 -7c-8.75 -3.75 -19.625 -3.125 -23.75 1 -4.125 4.25 3.25 7.125 16.25 6.625 14.75 -0.25 17.5 -3.25 7.5 -7.5zm195.375 -593.75c26.75 -27 16 -35 -46 -35 -33.5 0 -84.125 -8.375 -112.5 -18.375s-51.5 -15.625 -51.5 -12.5c0 3 23.25 22.5 51.875 43.125 55 40 130 50.75 158.125 22.5zm-78.75 -68.75c-20.625 -10.75 -66.75 -47.125 -102.5 -80.625 -35.625 -33.375 -67.75 -60.75 -71.25 -60.75 -3.75 0 16.25 30.75 44.75 68.75 33.75 45 65 72.5 90.5 80 61.25 17.75 79.625 14.25 38.75 -7.5zm118.75 -2.875c0 -44.75 -15 -63.125 -61.25 -75.625 -25.625 -6.875 -79.25 -37.875 -119.125 -68.75 -65.5 -51 -79.25 -56.5 -140 -56.5 -36.875 0 -67.125 5.625 -67.125 12.5s16 12.5 35.75 12.5c38.75 0 108.125 42.25 168.75 102.75 33.75 33.75 146.25 96.875 173.375 97.125 5 0 9.375 -10.875 9.375 -24.125zm-594.125 510.625c-13.125 -41.625 16.625 -93.125 71.875 -124.125 47.5 -26.875 50.625 -27.25 41.25 -5a441.25 441.25 0 0 0 -18.375 74c-11 66.5 -21.25 80.875 -56.75 80.875 -19.125 0 -32.5 -9.375 -38 -26zm62.125 -2.25c2.5 -8.5 7.875 -37.5 11.625 -64.125l6.875 -48.375 -30.75 28.75c-39.625 37.125 -41.625 99.625 -3.5 99.625 6 0 13 -7.125 15.625 -15.75zm1647.125 12.5c-7.125 -8.5 -16.875 -36.75 -21.75 -62.5a217.5 217.5 0 0 0 -33.75 -78.75c-34.625 -43.75 -21.875 -49.625 44.375 -20.25 62.125 27.5 98.75 73 98.75 122.5 0 48.75 -58.375 74.75 -87.875 39zm64.625 -29c8.75 -22.5 -11.75 -66.75 -41.25 -89.25 -31.25 -23.75 -39.5 -18.75 -31.75 18.375l12.875 62.5c6.5 32.5 48.375 38.5 60 8.375zM466.375 1239a76.375 76.375 0 0 1 -20 -46.875c0 -15 -11.25 -46.25 -25.5 -69.375l-25.625 -42.125 32.125 8c26.625 6.5 32 3.75 32 -18.25a128.75 128.75 0 0 0 -13.375 -51c-28 -52.125 -1.75 -50.5 54.625 3.5 62.75 60.25 70.375 88.5 46.25 172.25 -17.75 62.125 -46.5 77.5 -80.5 43.75zm55.375 -36.5c0 -30.375 -38.5 -81.25 -61.25 -81.25 -6.5 0 -6.625 19.5 -0.375 46.75 5.875 25.875 10.875 51.25 11 56.25 0 5.25 11.5 9.5 25.25 9.5 18.25 0 25 -8.375 25 -31.25zm25 -75c0 -16.875 -16.875 -49.25 -37.5 -71.75l-37.125 -40.75 7.75 43.75c6.25 35.875 46.625 100 62.75 100 2.125 0 4 -13.75 4 -31zm2010.875 55c-52.75 -52.75 -8.75 -148.375 92 -200 51.25 -26.25 57.875 -19.75 26 25.75 -13.25 18.75 -20.375 52.125 -19.5 91 1 45.375 -5 67.5 -23 85.625 -30.875 30.75 -43.125 30.375 -75.75 -2.25zm77.25 -86.25c3.75 -44.5 6 -82.5 4.625 -84.625 -1.25 -1.875 -20 14 -41.5 35.5 -59.5 59.5 -52.75 141.25 11 133 13.75 -1.625 20.875 -24.375 26 -83.375z"/></svg>