<svg width="100px" height="100px" viewBox="0 0 100 100" xmlns="http://www.w3.org/2000/svg"><path fill="#ffd900" d="M36.214 7.204s-4.818 1.122 -6.984 3.038c-7.536 6.67 -10.011 13.213 -10.497 20.611l-8.588 9.184c18.793 -3.497 40.561 -4.281 66.52 -4.084 -4.102 -2.763 -8.08 -5.03 -11.586 -7.19 -2.827 -6.933 -6.582 -14.96 -12.878 -18.628 -2.763 -1.609 -5.692 -2.739 -8.586 -3.287 -2.097 -3.966 -6.914 -2.308 -7.4 0.355zM20.503 41.953c3.97 7.934 11.062 15.542 17.531 20.12 3.566 2.467 7.176 4.229 9.968 4.716 2.333 0.438 4.582 -0.277 5.63 -2.084l0 -0.001v0c1.583 -2.793 2.874 -5.61 3.976 -8.437 3.081 0.339 6.525 0.496 7.43 -0.23 1.428 -1.147 -1.709 -10.955 -3.136 -13.563C62.5 41.258 62.5 39.974 62.5 39.039c-7.702 -0.429 -29.421 1.254 -41.997 2.914m66.825 1.186c-2.604 0.059 -4.863 1.925 -6.529 4.427 -1.838 2.761 -3.152 6.512 -3.671 10.753s-0.151 8.197 0.967 11.321c0.838 2.342 2.174 4.359 4.034 5.374l-2.104 21.226 3.499 0.347 2.073 -20.924c2.347 -0.311 4.383 -2.074 5.918 -4.379 1.838 -2.761 3.152 -6.512 3.671 -10.753 0.52 -4.241 0.15 -8.198 -0.967 -11.321s-3.122 -5.669 -6.072 -6.031a5.664 5.664 0 0 0 -0.819 -0.041m0.391 3.53c1.073 0.131 2.314 1.278 3.189 3.726 0.876 2.448 1.249 5.942 0.788 9.709s-1.668 7.068 -3.109 9.232c-1.441 2.164 -2.921 2.977 -3.994 2.845 -1.073 -0.131 -2.313 -1.277 -3.189 -3.725 -0.876 -2.448 -1.249 -5.941 -0.788 -9.709s1.667 -7.068 3.108 -9.232c0.979 -1.204 2.479 -2.962 3.994 -2.846M19.37 47.369c-1.219 1.669 -2.729 3.373 -4.514 5.028 -2.365 2.194 -5.208 4.263 -8.437 5.901 7.246 1.47 15.139 4.567 22.502 8.319 8.267 4.213 15.777 9.215 20.854 13.896l0.452 -4.821c-2.224 -2.468 -4.595 -4.654 -7.006 -6.69 -2.373 -0.977 -4.796 -2.383 -7.187 -4.038 -7.104 -4.915 -13.843 -11.898 -16.665 -17.595m67.301 2.202c0.007 4.2 0.589 8.893 1.908 12.623 1.314 -3.856 1.371 -10.79 -1.908 -12.623m-26.875 10.631a68.945 68.945 0 0 1 -1.512 3.237c1.432 1.059 2.253 2.069 2.716 3.028 0.609 1.264 0.682 2.554 0.425 4.159 -0.438 2.735 -1.995 6.147 -2.797 10.201 -1.767 2.475 -0.306 10.946 3.567 11.902 8.726 2.154 13.615 -6.973 11.643 -9.124 -1.917 -2.092 -7.343 -3.855 -11.313 -3.897 0.791 -2.878 1.912 -5.661 2.37 -8.527 0.325 -2.034 0.259 -4.191 -0.73 -6.241 -0.831 -1.724 -2.261 -3.292 -4.371 -4.739zm-53.296 1.721C5.572 63.348 4.559 64.947 3.516 66.691V96.484h49.834c-0.571 -2.758 -1.096 -5.605 -1.712 -8.326 -0.127 -1.108 -1.029 -1.776 -1.769 -2.6 -4.288 -4.777 -12.955 -10.922 -22.545 -15.809 -6.867 -3.499 -14.246 -6.372 -20.824 -7.826z"/></svg>