<svg width="100px" height="100px" viewBox="0 0 100 100" enable-background="new 0 0 512 512" id="Unicorn" version="1.1" xml:space="preserve" xmlns="http://www.w3.org/2000/svg" xmlns:xlink="http://www.w3.org/1999/xlink"><path d="M71.334 64.954c0.01 -0.482 -0.024 -0.964 -0.138 -1.432 -1.516 -6.216 -8.076 -12.167 -23.491 -14.954 -10.582 -1.914 -15.277 -5.988 -17.242 -8.525 -0.854 -1.103 -1.295 -2.467 -1.295 -3.862 0 -2.27 1.197 -4.379 3.16 -5.518 4.622 -2.68 9.445 -5.944 12.055 -7.755 1.079 -0.749 1.838 -1.918 1.946 -3.227 0.207 -2.513 -1.771 -4.616 -4.24 -4.616h-16.323l-1.687 -4.542c-0.255 -0.687 -1.155 -0.844 -1.634 -0.289C19.315 13.857 18.623 18.976 18.623 18.976S10.46 26.629 8.93 47.717c-1.406 19.379 13.009 22.076 14.199 22.265 -0.231 4.683 -0.368 19.538 6.374 28.364 0.274 0.359 0.708 0.56 1.159 0.56h3.979c1.153 0 1.851 -1.264 1.241 -2.242 -1.497 -2.405 -3.512 -6.735 -3.819 -12.954 -0.426 -8.625 2.336 -10.404 5.071 -11.763a901.367 901.367 0 0 1 11.591 1.959c3.063 0.715 7.229 1.368 10.07 1.776 1.859 0.267 3.302 1.758 3.496 3.626 0.78 7.526 2.067 15.487 2.56 18.422a1.409 1.409 0 0 0 1.393 1.175h2.46c0.841 0 1.506 -0.731 1.404 -1.566 -1.158 -9.497 0.216 -20.032 0.216 -20.032 0.806 -5.645 0.976 -10.547 1.011 -12.354" fill="#E6F0FF"/><path d="M19.115 16.77s-10.707 3.44 -12.574 14.77c0 0 -1.245 9.088 4.233 12.076l9.462 -24.775z" fill="#FFD9BE"/><path d="M19.115 16.77s-1.379 0.446 -3.231 1.536c0.655 10.213 -4.472 16.148 -9.414 16.865 0.201 2.88 1.106 6.701 4.304 8.445l9.462 -24.775z" fill="#FFBF76"/><path d="M28.437 80.657c-0.898 -5.581 -2.034 -10.827 -3.346 -13.013l-7.594 -1.743s4.424 15.001 4.068 30.753c-0.028 1.238 0.972 2.253 2.209 2.253h2.558c0.818 0 1.489 -0.641 1.519 -1.459 0.125 -3.395 0.356 -10.093 0.585 -16.791" fill="#819FEA"/><path d="M50.737 73.37s4.331 10.329 3.799 24.223c-0.027 0.715 0.535 1.314 1.251 1.314h2.788a1.25 1.25 0 0 0 1.253 -1.24c0.031 -3.834 0.297 -15.61 2.363 -21.806z" fill="#819FEA"/><path d="M63.809 56.065s3.984 -4.233 9.462 -4.233h0.016c5.029 0 9.19 3.912 9.5 8.931l0.661 10.7c0.088 1.421 1.266 2.529 2.69 2.529h0a2.695 2.695 0 0 0 2.64 -2.152l0.011 -0.054a2.295 2.295 0 0 1 2.476 -1.821h0a2.292 2.292 0 0 1 2.038 1.916c0.644 3.993 1.056 13.44 -9.45 13.44 0 0 -12.45 0.125 -13.695 -16.745z" fill="#FFD9BE"/><path d="M28.326 31.804c0.099 -0.37 0.635 -0.365 0.724 0.008 0.431 1.803 1.814 4.06 5.378 5.205 7.128 2.291 14.068 3.984 13.944 13.072 0 0 -24.623 -1.13 -20.046 -18.286" fill="#FFBF76"/><path d="m24.079 14.359 13 -13.094c0.435 -0.439 1.159 0.035 0.931 0.61l-5.698 14.352h-9.96z" fill="#C7DAFF"/><path fill="#819FEA" points="176.833,54.377 181.356,42.986 171.149,25.307 164.131,32.376 " d="M34.538 10.621L35.421 8.396L33.428 4.943L32.057 6.323Z"/><path fill="#819FEA" points="156.303,83.08 165.437,83.08 166.237,81.062 147.69,48.937 140.672,56.006 " d="M30.528 16.227L32.312 16.227L32.468 15.832L28.846 9.558L27.475 10.939Z"/><path cx="152.051" cy="102.84" fill="#819FEA" r="7.012" d="M31.067 20.086A1.37 1.37 0 0 1 29.697 21.455A1.37 1.37 0 0 1 28.328 20.086A1.37 1.37 0 0 1 31.067 20.086z"/><path d="M41.561 72.678a891.406 891.406 0 0 1 7.164 1.229c3.063 0.715 7.229 1.368 10.07 1.776 1.859 0.267 3.302 1.758 3.496 3.626 0.78 7.526 2.067 15.487 2.56 18.422a1.409 1.409 0 0 0 1.393 1.175l2.46 0c0.841 0 1.506 -0.731 1.404 -1.566 -1.158 -9.497 0.216 -20.032 0.216 -20.032 0.806 -5.645 0.976 -10.547 1.011 -12.354 0.01 -0.482 -0.024 -0.964 -0.138 -1.432 -0.759 -3.113 -2.785 -6.16 -6.553 -8.776 0.267 6.926 -2.497 17.316 -23.081 17.932" fill="#C7DAFF"/><path d="M37.134 71.948s-6.003 -1.281 -7.437 5.698c0 0 -1.878 11.725 3.718 18.704 0 0 0.851 1.31 0.028 2.557h1.197c1.153 0 1.851 -1.264 1.241 -2.242 -1.497 -2.405 -3.512 -6.735 -3.819 -12.954 -0.426 -8.626 2.336 -10.404 5.071 -11.763" fill="#C7DAFF"/><path d="M93.303 71.882c-0.223 -1.384 -1.659 -2.326 -3.165 -1.762 -0.691 0.259 -1.187 0.881 -1.336 1.604 -0.234 1.134 -1.117 2.072 -2.262 2.239 -1.598 0.232 -2.996 -0.947 -3.092 -2.5l-0.661 -10.7c-0.09 -1.45 -0.509 -2.803 -1.169 -4 0.466 3.478 0.503 9.976 -4.703 13.763 -1.211 0.881 -1.978 2.264 -1.924 3.761 0.092 2.542 0.918 6.478 4.528 10.048 2.41 1.001 4.335 0.986 4.335 0.986 10.505 0 10.093 -9.447 9.45 -13.44" fill="#FFBF76"/><path d="m23.89 15.785 -0.68 -2.38c-0.115 -0.404 -0.663 -0.475 -0.869 -0.108 -0.524 0.933 -1.237 2.542 -1.4 4.601z" fill="#819FEA"/></svg>